<?xml version="1.0" encoding="UTF-8" standalone="no"?><svg xmlns="http://www.w3.org/2000/svg" xmlns:xlink="http://www.w3.org/1999/xlink" contentScriptType="application/ecmascript" contentStyleType="text/css" height="440px" preserveAspectRatio="none" style="width:444px;height:440px;background:#FFFFFF;" version="1.1" viewBox="0 0 444 440" width="444px" zoomAndPan="magnify"><defs><filter height="300%" id="f17jaxmrc3w646" width="300%" x="-1" y="-1"><feGaussianBlur result="blurOut" stdDeviation="2.0"/><feColorMatrix in="blurOut" result="blurOut2" type="matrix" values="0 0 0 0 0 0 0 0 0 0 0 0 0 0 0 0 0 0 .4 0"/><feOffset dx="4.0" dy="4.0" in="blurOut2" result="blurOut3"/><feBlend in="SourceGraphic" in2="blurOut3" mode="normal"/></filter></defs><g><!--MD5=[35b4a7c15b70ff3a58470ba7b9dab227]
cluster errorsbp--><polygon fill="#FFFFFF" filter="url(#f17jaxmrc3w646)" points="16,6,83,6,90,28.4883,427,28.4883,427,433,16,433,16,6" style="stroke:#000000;stroke-width:1.5;"/><line style="stroke:#000000;stroke-width:1.5;" x1="16" x2="90" y1="28.4883" y2="28.4883"/><text fill="#000000" font-family="sans-serif" font-size="14" font-weight="bold" lengthAdjust="spacing" textLength="61" x="20" y="21.5352">errorsbp</text><!--MD5=[324cde05e171777a4295ebe89dbd66da]
class errorsbp.Batch--><rect codeLine="2" fill="#FEFECE" filter="url(#f17jaxmrc3w646)" height="203.4609" id="errorsbp.Batch" style="stroke:#A80036;stroke-width:1.5;" width="222" x="189" y="41"/><ellipse cx="280.25" cy="57" fill="#7FFFD4" rx="11" ry="11" style="stroke:#A80036;stroke-width:1.0;"/><path d="M279.9834,58.063 Q278.1323,57.3574 277.4766,56.5813 Q276.8208,55.8052 276.8208,54.4937 Q276.8208,52.8086 277.8999,51.8457 Q278.979,50.8828 280.8633,50.8828 Q281.7183,50.8828 282.5732,51.0779 Q283.4282,51.2729 284.2666,51.6548 L284.2666,54.0454 Q283.478,53.4893 282.6646,53.1987 Q281.8511,52.9082 281.0542,52.9082 Q280.166,52.9082 279.6929,53.2651 Q279.2197,53.6221 279.2197,54.2861 Q279.2197,54.8008 279.5642,55.137 Q279.9087,55.4731 281.0044,55.8799 L282.0586,56.2783 Q283.5527,56.8262 284.2583,57.731 Q284.9639,58.6357 284.9639,60.0137 Q284.9639,61.8896 283.8557,62.8152 Q282.7476,63.7407 280.5063,63.7407 Q279.585,63.7407 278.6594,63.5208 Q277.7339,63.3008 276.8706,62.8691 L276.8706,60.3374 Q277.8501,61.0347 278.7673,61.375 Q279.6846,61.7153 280.5811,61.7153 Q281.4858,61.7153 281.9839,61.3044 Q282.4819,60.8936 282.4819,60.1548 Q282.4819,59.5986 282.1499,59.1794 Q281.8179,58.7603 281.187,58.5195 Z " fill="#000000"/><text fill="#000000" font-family="sans-serif" font-size="12" lengthAdjust="spacing" textLength="31" x="300.75" y="61.5352">Batch</text><line style="stroke:#A80036;stroke-width:1.5;" x1="190" x2="410" y1="73" y2="73"/><rect fill="none" height="6" style="stroke:#C82930;stroke-width:1.0;" width="6" x="197" y="81"/><text fill="#000000" font-family="sans-serif" font-size="11" lengthAdjust="spacing" textLength="73" x="209" y="87.6348">errors []error</text><line style="stroke:#A80036;stroke-width:1.5;" x1="190" x2="410" y1="93.9551" y2="93.9551"/><rect fill="#F24D5C" height="6" style="stroke:#C82930;stroke-width:1.0;" width="6" x="197" y="101.9551"/><text fill="#000000" font-family="sans-serif" font-size="11" lengthAdjust="spacing" textLength="119" x="209" y="108.5898">addBatch(batch Batch)</text><text fill="#000000" font-family="sans-serif" font-size="11" lengthAdjust="spacing" textLength="0" x="212" y="121.5449"/><ellipse cx="200" cy="130.8652" fill="#84BE84" rx="3" ry="3" style="stroke:#038048;stroke-width:1.0;"/><text fill="#000000" font-family="sans-serif" font-size="11" lengthAdjust="spacing" textLength="71" x="209" y="134.5">Error() string</text><ellipse cx="200" cy="143.8203" fill="#84BE84" rx="3" ry="3" style="stroke:#038048;stroke-width:1.0;"/><text fill="#000000" font-family="sans-serif" font-size="11" lengthAdjust="spacing" textLength="44" x="209" y="147.4551">Len() int</text><ellipse cx="200" cy="156.7754" fill="#84BE84" rx="3" ry="3" style="stroke:#038048;stroke-width:1.0;"/><text fill="#000000" font-family="sans-serif" font-size="11" lengthAdjust="spacing" textLength="24" x="209" y="160.4102">As(v</text><text fill="#0000FF" font-family="sans-serif" font-size="11" lengthAdjust="spacing" textLength="47" x="236" y="160.4102">interface</text><text fill="#000000" font-family="sans-serif" font-size="11" lengthAdjust="spacing" textLength="39" x="283" y="160.4102">{}) bool</text><ellipse cx="200" cy="169.7305" fill="#84BE84" rx="3" ry="3" style="stroke:#038048;stroke-width:1.0;"/><text fill="#000000" font-family="sans-serif" font-size="11" lengthAdjust="spacing" textLength="107" x="209" y="173.3652">Is(target error) bool</text><ellipse cx="200" cy="182.6855" fill="#84BE84" rx="3" ry="3" style="stroke:#038048;stroke-width:1.0;"/><text fill="#000000" font-family="sans-serif" font-size="11" lengthAdjust="spacing" textLength="92" x="209" y="186.3203">Add(errs ...error)</text><ellipse cx="200" cy="195.6406" fill="#84BE84" rx="3" ry="3" style="stroke:#038048;stroke-width:1.0;"/><text fill="#000000" font-family="sans-serif" font-size="11" lengthAdjust="spacing" textLength="196" x="209" y="199.2754">AddPrefix(prefix string, errs ...error)</text><ellipse cx="200" cy="208.5957" fill="#84BE84" rx="3" ry="3" style="stroke:#038048;stroke-width:1.0;"/><text fill="#000000" font-family="sans-serif" font-size="11" lengthAdjust="spacing" textLength="83" x="209" y="212.2305">Compile() error</text><ellipse cx="200" cy="221.5508" fill="#84BE84" rx="3" ry="3" style="stroke:#038048;stroke-width:1.0;"/><text fill="#000000" font-family="sans-serif" font-size="11" lengthAdjust="spacing" textLength="36" x="209" y="225.1855">Clear()</text><ellipse cx="200" cy="234.5059" fill="#84BE84" rx="3" ry="3" style="stroke:#038048;stroke-width:1.0;"/><text fill="#000000" font-family="sans-serif" font-size="11" lengthAdjust="spacing" textLength="99" x="209" y="238.1406">GetErrors() []error</text><!--MD5=[82172ea07bf292eca80e6a409cb31c1f]
class errorsbp.Suppressor--><rect codeLine="23" fill="#FEFECE" filter="url(#f17jaxmrc3w646)" height="73.9102" id="errorsbp.Suppressor" style="stroke:#A80036;stroke-width:1.5;" width="158" x="56" y="324.5"/><ellipse cx="98.45" cy="340.5" fill="#FF7700" rx="11" ry="11" style="stroke:#A80036;stroke-width:1.0;"/><path d="M99.7918,347.75 L97.3431,347.75 L97.3431,337.4985 L94.1971,337.4985 L94.1971,335.3569 L102.9378,335.3569 L102.9378,337.4985 L99.7918,337.4985 Z " fill="#000000"/><text fill="#000000" font-family="sans-serif" font-size="12" lengthAdjust="spacing" textLength="65" x="118.55" y="345.0352">Suppressor</text><line style="stroke:#A80036;stroke-width:1.5;" x1="57" x2="213" y1="356.5" y2="356.5"/><line style="stroke:#A80036;stroke-width:1.5;" x1="57" x2="213" y1="364.5" y2="364.5"/><ellipse cx="67" cy="375.5" fill="#84BE84" rx="3" ry="3" style="stroke:#038048;stroke-width:1.0;"/><text fill="#000000" font-family="sans-serif" font-size="11" lengthAdjust="spacing" textLength="132" x="76" y="379.1348">Suppress(err error) bool</text><ellipse cx="67" cy="388.4551" fill="#84BE84" rx="3" ry="3" style="stroke:#038048;stroke-width:1.0;"/><text fill="#000000" font-family="sans-serif" font-size="11" lengthAdjust="spacing" textLength="113" x="76" y="392.0898">Wrap(err error) error</text><!--MD5=[f55b353b649bb0bb889c2145d2ecd272]
class errorsbp.<font color=blue>func</font>(error) bool--><rect fill="#FEFECE" filter="url(#f17jaxmrc3w646)" height="48" id="errorsbp.&lt;font color=blue&gt;func&lt;/font&gt;(error) bool" style="stroke:#A80036;stroke-width:1.5;" width="122" x="32" y="118.5"/><ellipse cx="47" cy="134.5" fill="#ADD1B2" rx="11" ry="11" style="stroke:#A80036;stroke-width:1.0;"/><path d="M49.4731,140.6431 Q48.8921,140.9419 48.2529,141.0913 Q47.6138,141.2407 46.9082,141.2407 Q44.4014,141.2407 43.0815,139.5889 Q41.7617,137.937 41.7617,134.8159 Q41.7617,131.6865 43.0815,130.0347 Q44.4014,128.3828 46.9082,128.3828 Q47.6138,128.3828 48.2612,128.5322 Q48.9087,128.6816 49.4731,128.9805 L49.4731,131.7031 Q48.8423,131.1221 48.2488,130.8523 Q47.6553,130.5825 47.0244,130.5825 Q45.6797,130.5825 44.9949,131.6492 Q44.3101,132.7158 44.3101,134.8159 Q44.3101,136.9077 44.9949,137.9744 Q45.6797,139.041 47.0244,139.041 Q47.6553,139.041 48.2488,138.7712 Q48.8423,138.5015 49.4731,137.9204 Z " fill="#000000"/><text fill="#0000FF" font-family="sans-serif" font-size="12" lengthAdjust="spacing" textLength="24" x="61" y="139.0352">func</text><text fill="#000000" font-family="sans-serif" font-size="12" lengthAdjust="spacing" textLength="66" x="85" y="139.0352">(error) bool</text><line style="stroke:#A80036;stroke-width:1.5;" x1="33" x2="153" y1="150.5" y2="150.5"/><line style="stroke:#A80036;stroke-width:1.5;" x1="33" x2="153" y1="158.5" y2="158.5"/><!--MD5=[39d0abdc9fef38cf764408be0d7fdaed]
reverse link errorsbp.<font color=blue>func</font>(error) bool to errorsbp.Suppressor--><path codeLine="29" d="M98.47,171.79 C106.03,210.82 119.66,281.24 127.96,324.14 " fill="none" id="errorsbp.&lt;font color=blue&gt;func&lt;/font&gt;(error) bool-backto-errorsbp.Suppressor" style="stroke:#A80036;stroke-width:1.0;stroke-dasharray:7.0,7.0;"/><rect fill="#FFFFFF" height="10" style="stroke:#A80036;stroke-width:1.5;" width="10" x="92.49" y="161.72"/><text fill="#000000" font-family="sans-serif" font-size="13" lengthAdjust="spacing" textLength="46" x="76.6091" y="313.7533">alias of</text><!--MD5=[3c6dc6ad07193a4a4144d35c90401f21]
@startuml
namespace errorsbp {
    class Batch << (S,Aquamarine) >> {
        - errors []error

        - addBatch(batch Batch) 

        + Error() string
        + Len() int
        + As(v <font color=blue>interface</font>{}) bool
        + Is(target error) bool
        + Add(errs ...error) 
        + AddPrefix(prefix string, errs ...error) 
        + Compile() error
        + Clear() 
        + GetErrors() []error

    }
    class Suppressor << (S,Aquamarine) >> {
        + Suppress(err error) bool
        + Wrap(err error) error

    }
    class errorsbp.Suppressor << (T, #FF7700) >>  {
    }
}



"errorsbp.<font color=blue>func</font>(error) bool" #.. "alias of""errorsbp.Suppressor"
@enduml

PlantUML version 1.2021.11(Sat Oct 02 06:26:11 PDT 2021)
(GPL source distribution)
Java Runtime: OpenJDK Runtime Environment
JVM: OpenJDK 64-Bit Server VM
Default Encoding: UTF-8
Language: en
Country: US
--></g></svg>